<svg width="900" height="100" viewBox="0 0 900 100" fill="none" xmlns="http://www.w3.org/2000/svg">
<path d="M20.5312 2.29507C15.4687 3.60654 8.71874 7.2131 5.62499 10.1639C0.562485 15.082 -1.52588e-05 18.3606 -1.52588e-05 49.6721C-1.52588e-05 87.541 1.96873 93.1147 17.1562 97.541C26.1562 100.328 65.8125 100.82 77.0625 98.3607C89.1562 95.7377 95.625 87.541 95.625 74.918V63.9344H81.5625C67.5 63.9344 67.5 63.9344 67.5 69.1803C67.5 77.7049 64.6875 79.0164 47.5312 78.3606L32.3437 77.8688L31.5 50.3279L30.9375 22.9508H47.5312C65.25 22.9508 67.5 24.0984 67.5 32.1311C67.5 35.7377 68.625 36.0656 81.5625 36.0656H95.625V25.4098C95.625 6.2295 86.9062 1.31146 52.0312 0.491791C36.5625 0.163925 26.7187 0.655731 20.5312 2.29507Z" fill="#0059DF"/>
<path d="M116.437 2.13115C115.594 3.44263 115.312 8.52459 115.875 13.2787L116.719 22.1311L134.438 22.623L151.875 23.1148V61.4754V100H167.344H182.812V61.4754V23.1148L200.531 22.623L217.969 22.1311V11.4754V0.819672L167.906 0.327873C127.406 0 117.844 0.327873 116.437 2.13115Z" fill="#0059DF"/>
<path d="M258.75 1.14754C249.187 3.11475 241.875 9.0164 238.781 17.0492C234.562 28.5246 236.531 84.5902 241.594 89.8361C248.344 97.2131 261 100 286.312 100C331.594 100 334.687 96.8852 334.687 50C334.687 12.459 332.719 6.88525 317.531 2.45901C309.656 0 268.031 -0.819672 258.75 1.14754ZM302.344 50V77.8689L287.156 78.3607C276.75 78.6885 271.125 78.1967 269.719 76.7213C266.625 74.0984 266.344 23.9344 269.156 22.2951C270.281 21.6393 278.156 21.3115 286.875 21.6393L302.344 22.1311V50Z" fill="#0059DF"/>
<path d="M354.375 49.8361V100H369.844H385.312V81.9672V63.9344H405.844C440.156 63.9344 449.719 58.6885 451.969 38.1967C453.937 22.1311 449.437 9.99999 439.594 4.75409C433.125 1.14753 430.031 0.819664 393.469 0.327858L354.375 -0.327873V49.8361ZM420.469 31.9672V41.8033L403.031 42.2951L385.312 42.7869V31.9672V21.1475L403.031 21.6393L420.469 22.1311V31.9672Z" fill="#0059DF"/>
<path d="M472.5 49.8361V100H487.688H502.594L521.719 72.623C532.125 57.3771 541.688 44.4262 543.094 43.4426C544.5 42.623 545.625 54.0984 545.625 71.1475V100.164L560.531 99.6721L575.156 99.1803V50V0.819672L559.688 0.327866L544.219 0L524.531 28.6885L504.844 57.3771L503.438 29.0164L502.031 0.819672L487.406 0.327866L472.5 -0.163933V49.8361Z" fill="#0059DF"/>
<path d="M593.438 50V100.164L608.344 99.6721L622.969 99.1803L623.813 79.8361L624.656 60.6557H645.469H666.281L667.125 80L667.969 99.1803L682.875 99.6721L697.5 100.164V50V-0.163933L682.875 0.327866L667.969 0.819672L667.125 20L666.281 39.3443H645.469H624.656L623.813 20L622.969 0.819672L608.344 0.327866L593.438 -0.163933V50Z" fill="#0059DF"/>
<path d="M721.125 2.62298C722.25 4.09839 731.25 13.2787 741.094 22.9508C751.219 32.7869 759.375 41.3115 759.375 42.2951C759.375 43.1148 750.656 55.082 739.688 68.8525C712.969 103.115 713.531 100.328 733.219 99.6722L749.531 99.1804L765.281 80.4918L780.75 61.6394L786.938 67.541C792 72.2951 793.125 75.7377 793.125 86.7213V100H808.594H824.063V86.3935C824.063 75.5738 825.188 71.8033 830.25 67.2131L836.156 61.4754L842.625 69.6722C846.281 74.0984 853.031 82.7869 857.813 88.8525L866.25 100H883.125H900L896.063 94.5902C894.094 91.8033 884.531 79.1804 874.969 66.8853C865.688 54.4263 857.813 43.4426 857.813 42.2951C857.813 41.1476 866.813 31.6394 877.5 21.1476C888.469 10.4918 897.188 1.47544 897.188 0.819702C897.188 0.327896 889.313 3.05176e-05 880.031 0.327896L862.875 0.819702L844.031 19.6722L825.469 38.3607L824.063 19.6722L822.656 0.819702L808.031 0.327896L793.406 -0.16391L792.563 19.5082L791.719 39.3443L773.156 20L754.594 0.819702L736.875 0.327896C721.406 -0.16391 719.438 0.163963 721.125 2.62298Z" fill="#0059DF"/>
</svg>
